<?xml version="1.0" standalone="no"?><!DOCTYPE svg PUBLIC "-//W3C//DTD SVG 1.1//EN" "http://www.w3.org/Graphics/SVG/1.1/DTD/svg11.dtd"><svg t="1567423724245" class="icon" viewBox="0 0 1024 1024" version="1.1" xmlns="http://www.w3.org/2000/svg" p-id="3857" xmlns:xlink="http://www.w3.org/1999/xlink" width="128" height="128"><defs><style type="text/css"></style></defs><path d="M938.67008 0H85.32992A85.42208 85.42208 0 0 0 0 85.32992v853.34016A85.42208 85.42208 0 0 0 85.32992 1024h853.34016a85.42208 85.42208 0 0 0 85.32992-85.32992V85.32992A85.42208 85.42208 0 0 0 938.67008 0zM85.32992 56.89344h853.34016a28.4672 28.4672 0 0 1 28.44672 28.44672v199.10656H56.89344V85.32992a28.47744 28.47744 0 0 1 28.43648-28.43648z m853.34016 910.21312H85.32992a28.47744 28.47744 0 0 1-28.44672-28.44672V341.32992h910.22336v597.34016a28.4672 28.4672 0 0 1-28.43648 28.43648z" p-id="3858" fill="#ffffff"></path><path d="M210.8928 655.69792l146.91328-150.31296a28.45696 28.45696 0 0 0-40.69376-39.7824L150.3232 636.28288a28.43648 28.43648 0 0 0 0.47104 40.22272l170.65984 166.76864a28.43648 28.43648 0 1 0 39.75168-40.66304zM706.88768 465.6128a28.45696 28.45696 0 0 0-40.69376 39.7824l146.91328 150.30272L662.79424 802.6112a28.43648 28.43648 0 1 0 39.75168 40.66304l170.68032-166.77888a28.43648 28.43648 0 0 0 0.44032-40.22272zM575.25248 480.50176a28.45696 28.45696 0 0 0-36.4544 16.9984L431.75936 791.5008a28.43648 28.43648 0 1 0 53.44256 19.456l107.03872-294.01088a28.42624 28.42624 0 0 0-16.98816-36.44416z" p-id="3859" fill="#ffffff"></path></svg>